<?xml version="1.0" standalone="no"?><!DOCTYPE svg PUBLIC "-//W3C//DTD SVG 1.1//EN" "http://www.w3.org/Graphics/SVG/1.1/DTD/svg11.dtd"><svg t="1617086449230" class="icon" viewBox="0 0 1024 1024" version="1.1" xmlns="http://www.w3.org/2000/svg" p-id="2726" xmlns:xlink="http://www.w3.org/1999/xlink" width="200" height="200"><defs><style type="text/css"></style></defs><path d="M780.946286 634.660571l-256 256a18.285714 18.285714 0 0 1-25.892572 0l-329.142857-329.142857A18.285714 18.285714 0 0 1 164.571429 548.571429V292.571429a18.285714 18.285714 0 0 1 18.285714-18.285715h256a18.285714 18.285714 0 0 1 12.946286 5.339429l329.142857 329.142857a18.285714 18.285714 0 0 1 0 25.892571zM431.286857 310.857143H201.142857v230.144l310.857143 310.857143L742.144 621.714286l-310.857143-310.857143zM329.142857 512a73.142857 73.142857 0 1 1 0-146.285714 73.142857 73.142857 0 0 1 0 146.285714z m0-36.571429a36.571429 36.571429 0 1 0 0-73.142857 36.571429 36.571429 0 0 0 0 73.142857z m-18.285714-274.285714a18.285714 18.285714 0 0 1-36.571429 0V182.857143a18.285714 18.285714 0 0 1 18.285715-18.285714h256a18.285714 18.285714 0 0 1 12.946285 5.339428l329.142857 329.142857a18.285714 18.285714 0 0 1 0 25.892572l-36.571428 36.571428a18.285714 18.285714 0 0 1-25.892572-25.892571l23.661715-23.625143-310.857143-310.857143H310.857143z" p-id="2727"></path></svg>